<svg version="1.2" baseProfile="tiny-ps" xmlns="http://www.w3.org/2000/svg" viewBox="0 0 720 720" width="720" height="720">
	<title>template</title>
	<style>
		tspan { white-space:pre }
		.shp0 { fill: #ddc878 } 
		.shp1 { fill: #eea91b } 
	</style>
	<g >
		<path class="shp0" d="M0 360L0 720L720 720L720 0L0 0L0 360Z" />
		<path class="shp1" d="M302.18 47.04C300.98 49.22 300.45 51 301 51C301.55 51 304.27 49.99 307.04 48.75C309.81 47.51 312.06 46.16 312.04 45.75C312.02 45.34 311.44 44.81 310.75 44.58C310.06 44.35 308.34 43.92 306.93 43.63C304.74 43.17 304.04 43.67 302.18 47.04ZM280.5 56.67C273.35 58.53 262.55 60.95 256.5 62.03C250.45 63.12 236.5 64.94 225.5 66.07C214.5 67.19 202.35 68.79 198.5 69.61C194.65 70.43 188.13 72.23 184 73.62C179.88 75.01 172 78.32 166.5 80.97C161 83.63 150.43 89.49 143 93.99C135.57 98.49 125 105.38 119.5 109.31C114 113.24 105 120.32 99.5 125.04C94 129.76 85.67 137.8 81 142.9C76.33 148 69.2 156.52 65.16 161.84C61.12 167.15 55.44 175.32 52.55 180C49.65 184.68 45.25 192.55 42.78 197.5C40.3 202.45 36.57 210.78 34.5 216C32.43 221.22 29.65 229.78 28.34 235C26.94 240.55 25.91 247.62 25.87 252C25.82 257.56 26.74 263.06 29.4 273.25C31.38 280.81 35.07 292.74 37.6 299.75C40.13 306.76 44.66 317.68 47.66 324C50.66 330.32 55.51 339.1 58.44 343.5C61.36 347.9 66.62 354.14 70.13 357.38C73.63 360.61 79.42 364.87 83 366.85C86.58 368.82 92.65 371.71 96.5 373.27C100.35 374.84 107.33 377.21 112 378.55C116.67 379.89 130.4 383.25 142.5 386.01C154.6 388.76 168.32 391.67 173 392.46C177.68 393.26 187.13 394.44 194 395.09C201.25 395.77 212.17 396.01 220 395.66C227.43 395.33 237.1 394.38 241.5 393.55C245.9 392.71 252.65 390.98 256.5 389.69C260.35 388.4 267.32 385.21 272 382.6C276.68 380 287.25 374.86 295.5 371.18C303.74 367.51 312.97 362.67 316 360.43C319.02 358.19 322.83 354.59 324.45 352.43C326.08 350.27 328.62 345.8 330.1 342.5C331.57 339.2 333.71 331.77 334.84 326C335.97 320.23 337.4 312.13 338.01 308C338.62 303.88 339.37 293.52 339.69 285C340.03 275.65 339.79 265.13 339.07 258.5C338.41 252.45 337.02 243.68 335.98 239C334.93 234.32 331.86 222.85 329.14 213.5C326.42 204.15 322.81 192.9 321.12 188.5C319.42 184.1 316.34 177.63 314.27 174.13C312.2 170.63 308.02 165.43 305 162.59C301.41 159.22 297.41 156.63 293.5 155.15C288.41 153.22 284.18 152.71 265.5 151.76C248.92 150.92 239.93 150.93 229 151.82C221.03 152.46 209.78 154.07 204 155.39C198.22 156.72 188.55 159.62 182.5 161.84C176.45 164.07 166.32 168.2 160 171.02C153.68 173.84 144.34 178.59 139.25 181.57C134.16 184.56 127.02 189.81 123.38 193.25C119.73 196.69 115.73 201.53 114.48 204C112.74 207.43 111.93 211.59 111.05 221.5C110.42 228.65 109.52 239 109.06 244.5C108.59 250 108.57 257.88 109.02 262C109.48 266.13 110.75 271.98 111.85 275C113.08 278.38 115.62 282.33 118.43 285.25C120.94 287.86 125.59 291.65 128.75 293.67C131.91 295.69 137.65 298.64 141.5 300.22C145.35 301.8 152.1 304 156.5 305.12C160.9 306.24 168.32 307.48 173 307.87C177.68 308.27 184.65 308.24 188.5 307.82C192.35 307.39 199.55 305.84 204.5 304.37C209.45 302.91 218.45 299.72 224.5 297.29C230.55 294.86 237.75 291.55 240.5 289.95C243.25 288.34 246.54 286.23 247.81 285.26C249.19 284.2 250.71 281.3 251.61 278C252.43 274.98 253.37 267.55 253.68 261.5C254.02 254.98 253.81 248.26 253.15 245C252.55 241.97 251.02 238.2 249.77 236.6C248.52 235.01 244.8 232.32 241.5 230.63C236.49 228.06 234.35 227.56 228.5 227.56C222.47 227.56 220.39 228.09 213.5 231.36C209.1 233.45 202.69 237.15 199.25 239.58C195.81 242.01 191.89 245.46 190.53 247.25C189.17 249.04 188.04 251.74 188.03 253.25C188.01 255.35 188.77 256.4 191.25 257.7C193.26 258.75 196.6 259.35 200 259.29C203.03 259.24 209.66 258.25 214.75 257.1C222.23 255.4 224.3 255.24 225.54 256.25C226.7 257.18 227.08 259.41 227.05 265C227.03 269.62 226.49 273.27 225.66 274.5C224.89 275.63 221.73 277.23 218.4 278.19C215.15 279.11 208.9 280.43 204.5 281.11C200.1 281.79 188.85 282.38 179.5 282.42C167.06 282.48 161.43 282.11 158.5 281.06C156.16 280.22 151.45 276.69 147.16 272.56C143.12 268.68 138.33 263.25 136.52 260.5C134.71 257.75 132.79 253.93 132.26 252C131.57 249.49 131.78 245.25 132.99 237C133.93 230.68 135.54 222.8 136.57 219.5C137.61 216.2 139.81 211.49 141.48 209.03C143.14 206.57 146.53 203.32 149 201.8C151.47 200.28 158.22 197.26 164 195.09C169.78 192.92 179.68 189.59 186 187.68C192.32 185.77 202.22 183.22 208 182.02C215.24 180.51 225.17 179.53 240 178.84C251.82 178.28 265.77 178.05 271 178.31C276.23 178.57 282.07 179.26 284 179.85C285.93 180.44 289.42 182.17 291.76 183.71C294.11 185.24 297.39 188.53 299.06 191C300.72 193.47 303.92 200.22 306.17 206C308.42 211.78 311.51 221.45 313.03 227.5C314.56 233.55 316.5 243.22 317.34 249C318.18 254.78 319.41 265.8 320.06 273.5C320.71 281.2 321.02 294.48 320.75 303C320.41 314.01 319.78 319.8 318.59 323C317.67 325.48 315.81 329.19 314.46 331.25C312.57 334.13 309.74 336.13 302.25 339.87C296.89 342.55 287.55 346.58 281.5 348.83C275.45 351.09 266.45 354.09 261.5 355.5C256.55 356.92 248.68 358.74 244 359.55C238.46 360.51 228.88 361.01 216.5 360.98C206.05 360.96 184.22 360.09 168 359.05C142.48 357.41 137.56 356.83 131.5 354.74C127.65 353.4 120.67 350.4 116 348.07C111.33 345.73 103.22 340.97 98 337.49C92.78 334 85.35 328.33 81.5 324.89C77.65 321.44 72.35 316.12 69.72 313.06C67.09 310 62.01 303.45 58.44 298.5C54.86 293.55 49.5 284.55 46.54 278.5C43.57 272.45 40.67 265.14 40.07 262.25C39.48 259.36 39 254.86 39.01 252.25C39.01 249.64 39.93 243.68 41.05 239C42.17 234.32 44.04 227.35 45.19 223.5C46.34 219.65 49.19 211.55 51.51 205.5C53.83 199.45 57.14 191.69 58.86 188.25C60.59 184.81 63.46 180.38 65.25 178.4C67.04 176.42 71.2 173.52 74.5 171.97C77.8 170.42 83.65 166.78 87.5 163.88C91.35 160.99 101.03 153.22 109 146.63C116.97 140.04 126.88 131.64 131 127.96C135.13 124.28 141.43 119.07 145 116.37C148.57 113.68 155.1 109.62 159.5 107.36C163.9 105.1 175.15 100.19 184.5 96.46C198.78 90.75 204.46 89.06 220 85.92C234.78 82.94 240.31 81.34 247.5 77.98C252.45 75.67 261 72.32 266.5 70.55C272 68.77 279.65 65.66 283.5 63.62C287.35 61.59 292.3 58.37 294.5 56.48C298.25 53.25 298.34 53.04 296 53.16C294.63 53.23 287.65 54.81 280.5 56.67ZM549.5 103.11C543.99 103.53 537.45 105.08 528.5 108.07C519.74 111 506.2 117.05 487 126.61C467.92 136.11 454.04 143.79 445 149.82C437.57 154.79 427.68 162.2 423 166.29C418.32 170.38 410.78 177.96 406.23 183.12C400.08 190.09 396.71 195.06 393.07 202.5C390.38 208 384.36 220.6 379.68 230.5C375.01 240.4 370.4 250.97 369.43 254C368.42 257.14 367.68 262.5 367.7 266.5C367.71 271.41 368.53 275.89 370.42 281.5C371.91 285.9 376.07 294.68 379.66 301C383.26 307.32 388.94 316.32 392.29 321C395.63 325.68 401.15 332.88 404.56 337C407.96 341.13 415.19 348.78 420.62 354.01C426.06 359.23 436.57 367.83 444 373.11C451.43 378.39 461.1 385.07 465.5 387.94C469.9 390.82 477.1 394.9 481.5 397.02C485.9 399.14 492.99 401.57 497.25 402.43C504.25 403.85 505.65 403.85 511.75 402.46C515.46 401.61 520.98 399.52 524 397.82C527.02 396.12 533.33 391.98 538 388.62C542.67 385.26 550.55 379.19 555.5 375.12C560.45 371.05 567.58 364.75 571.34 361.11C575.1 357.48 580.76 351.35 583.92 347.5C587.07 343.65 591.91 337.13 594.66 333C597.41 328.88 602.18 321 605.25 315.5C608.33 310 612.61 301.68 614.77 297C616.93 292.32 620.22 284 622.1 278.5C625.07 269.75 625.5 267.25 625.5 258.49C625.5 248.53 625.48 248.46 621.2 240.99C618.83 236.87 612.98 227.88 608.2 221C603.42 214.13 596.13 205.09 592 200.92C586.21 195.07 583.13 192.81 578.5 191C573.91 189.21 570.62 188.67 564.5 188.71C560.1 188.74 553.8 189.28 550.5 189.91C547.2 190.55 539.77 192.95 534 195.26C528.23 197.56 519.67 202 515 205.11C510.32 208.22 503.8 213.63 500.5 217.13C497.2 220.64 493.06 225.53 491.31 228C489.55 230.48 485.52 237 482.35 242.5C479.18 248 475.11 255.88 473.31 260C471.5 264.13 469.75 269.07 469.41 271C468.93 273.79 469.52 275.92 472.36 281.5C474.32 285.35 478.33 291.65 481.29 295.5C484.24 299.35 488.98 304.41 491.83 306.75C496.3 310.42 497.65 311 501.75 311.01C504.36 311.02 508.75 310.36 511.5 309.56C514.25 308.76 518.41 306.73 520.75 305.05C523.09 303.37 526.56 299.64 528.48 296.75C530.39 293.86 533.35 287.68 535.06 283C536.76 278.32 538.4 271.57 538.69 268C539.15 262.42 538.92 261.11 537.11 258.75C535.95 257.24 534.1 256 533 256C531.9 256 529.2 256.9 527 258C524.52 259.24 519.97 263.6 515 269.5C510.6 274.73 506.32 279 505.5 279C504.68 279 502.41 277.09 500.47 274.75C498.53 272.41 496.51 269.04 495.97 267.25C495.21 264.72 495.39 263.19 496.75 260.33C497.71 258.31 504.57 250.61 512 243.23C519.78 235.49 529.04 227.41 533.87 224.15L542.23 218.5C557.17 218.68 564.2 219.29 567.5 219.97C570.8 220.65 575.52 222.28 578 223.59C581.56 225.48 583.48 227.61 587.17 233.74C589.74 238.01 593.45 244.88 595.43 249C598.65 255.74 599.01 257.34 599.01 264.75C599 272.54 598.75 273.49 594.54 281.75C592.08 286.56 586.54 295.9 582.21 302.5C577.89 309.1 571.65 317.88 568.35 322C565.06 326.13 559.69 332.2 556.43 335.51C553.17 338.81 543.75 347.49 535.5 354.8C523.89 365.07 518.59 369.03 512.08 372.29C504.7 375.97 502.82 376.5 496.98 376.5C491.05 376.5 489.27 375.98 480.91 371.83C475.73 369.27 466.77 363.82 461 359.72C455.23 355.62 446.68 348.91 442 344.82C437.32 340.72 428 331.55 421.29 324.43C414.57 317.32 406.58 308.35 403.52 304.5C400.47 300.65 396.3 294.13 394.26 290C391.19 283.83 390.53 281.41 390.52 276.36C390.5 270.77 391.1 269.03 397.18 256.86C400.86 249.51 406.97 238.78 410.76 233C414.54 227.22 420.36 219.13 423.68 215C427 210.88 433.5 204.3 438.11 200.39C442.72 196.48 454.38 187.44 464 180.31C473.63 173.17 487.35 163.24 494.5 158.24C501.65 153.24 509.98 148.01 513 146.62C516.02 145.23 522.55 143 527.5 141.67C532.45 140.33 540.77 138.69 546 138.02C551.97 137.25 562.19 136.97 573.5 137.28C588.85 137.7 592.97 138.16 601.5 140.44C607 141.91 614.88 144.27 619 145.67C623.13 147.08 629.88 149.96 634 152.07C638.13 154.19 644.38 158.52 647.89 161.71C652.73 166.09 655.25 169.44 658.28 175.5C660.47 179.9 664.27 188.68 666.71 195C669.15 201.32 672.48 211 674.12 216.5C675.76 222 677.36 230.1 677.66 234.5C678.18 241.83 677.96 243.15 675.11 250.25C673.4 254.51 670.88 262.39 669.52 267.75C668.16 273.11 665.21 286.95 662.97 298.5C660.73 310.05 657.76 324.9 656.37 331.5C654.99 338.1 652.22 347.32 650.23 352C648.24 356.68 643.4 366.35 639.49 373.5C635.57 380.65 630.27 389.65 627.71 393.5C625.15 397.35 619.24 405 614.57 410.5C609.9 416 604.21 423.88 601.91 428C599.62 432.13 594.93 440.23 591.49 446C588.05 451.77 584.21 458.52 582.95 461C581.69 463.48 579.65 468.43 578.42 472C577.18 475.57 576.36 479.06 576.59 479.75C576.81 480.44 577.67 481 578.5 481C579.33 481 583.93 475.94 588.74 469.75C593.55 463.56 600.64 454.91 604.49 450.52C608.35 446.13 619.15 434.63 628.5 424.96C638.08 415.06 647.83 403.91 650.82 399.44C653.75 395.07 658.54 386.55 661.46 380.5C664.39 374.45 669.03 363.43 671.78 356C674.53 348.57 678.38 336.88 680.34 330C682.3 323.13 685.04 311.88 686.43 305C687.87 297.88 689.39 285.51 689.98 276.25C690.66 265.45 690.67 254.88 690.03 244.75C689.49 236.36 688.16 224.55 687.07 218.5C685.97 212.45 683.48 201.88 681.51 195C679.49 187.89 675.53 177.54 672.35 171C667.48 160.99 665.77 158.54 659.13 152.09C654.53 147.62 644.95 140.33 635 133.73C625.92 127.71 612.2 119.7 604.5 115.94C596.8 112.17 586.9 107.91 582.5 106.46C578.05 105 570.73 103.54 566 103.17C561.33 102.8 553.9 102.77 549.5 103.11ZM375.4 362.87C375.01 363.34 371.95 364.29 368.6 364.98C365.24 365.67 356.88 368.24 350 370.69C343.13 373.14 330.75 378.46 322.5 382.52C314.25 386.57 303.23 392.7 298 396.15C290.63 401.01 283.2 407.69 264.83 425.96C241.36 449.3 241.12 449.58 236.68 459C234.21 464.23 231.87 470.07 231.48 472C231.09 473.93 230.37 476.06 229.88 476.75C229.37 477.48 229.39 478.73 229.93 479.75C230.44 480.71 231.33 484.65 231.91 488.5C232.73 493.94 234.72 499.07 240.83 511.5C245.16 520.3 250.84 531.1 253.46 535.5C256.07 539.9 261.26 547.55 264.99 552.5C268.71 557.45 276.44 566 282.18 571.5C287.91 577 297.3 585.1 303.05 589.5C308.8 593.9 314.24 597.95 315.13 598.5C316.03 599.05 319.18 601.16 322.13 603.19C325.09 605.22 331.32 608.65 336 610.81C340.68 612.97 346.64 615.25 349.25 615.87C351.86 616.49 356.48 617 359.5 617C364.21 617 367.63 615.84 383.25 608.92C393.29 604.47 404.65 598.9 408.5 596.53C412.35 594.16 417.27 590.26 419.44 587.86C421.61 585.46 424.49 581.02 425.85 578C427.8 573.65 428.42 570.3 428.79 562C429.18 553.62 428.81 549.18 426.97 540C425.59 533.09 423.14 525 420.84 519.75C418.73 514.94 415.82 509.09 414.38 506.75C412.94 504.41 410.35 500.96 408.63 499.07C406.91 497.18 403.02 493.18 400 490.18C396.98 487.18 390 481.11 384.5 476.69C379 472.28 372.35 467.73 369.71 466.58C367.08 465.44 364.94 464.16 364.96 463.75C364.98 463.34 363.65 463 362 463C360.35 463 355.96 463.96 352.25 465.13C348.54 466.29 342.57 468.76 339 470.6C335.43 472.44 330.51 475.64 328.08 477.72C325.65 479.8 323.06 482.96 322.33 484.75C321.6 486.54 321 490.25 321 493C321 495.91 321.88 499.98 323.11 502.75C324.28 505.4 327.71 509.9 330.86 512.92C333.96 515.9 338.75 519.84 341.5 521.67C344.25 523.51 349.2 525.93 352.5 527.05C355.8 528.17 359.8 528.96 361.4 528.8C362.99 528.63 364.74 527.83 365.28 527C365.82 526.17 365.97 523.81 365.63 521.75C365.28 519.69 364.1 517.1 363 516C361.9 514.9 361.02 513.66 361.03 513.25C361.05 512.84 359.7 511.04 358.03 509.25C356.37 507.46 353.84 504.31 352.42 502.25C350.66 499.7 350 497.7 350.37 496C350.72 494.34 352.69 492.41 356.2 490.26C359.96 487.96 362.73 487.02 365.75 487.01C369.46 487 370.57 487.57 374.5 491.5C376.98 493.98 379 496.23 379 496.5C379 496.77 380.96 499.59 383.35 502.75C385.74 505.91 389.59 511.65 391.91 515.5C394.23 519.35 397.9 526.21 400.07 530.75C402.23 535.29 404.27 540.24 404.61 541.75C404.95 543.26 404.69 547.65 404.03 551.5C403.38 555.35 401.45 562.1 399.74 566.5C397.45 572.4 395.44 575.68 392.07 579C388.29 582.72 385.43 584.27 375.5 587.95C366.39 591.34 361.7 592.51 356 592.83C350.99 593.12 346.67 592.73 343 591.68C339.98 590.81 336.49 589.18 335.25 588.05C334.01 586.92 332.44 586.01 331.75 586.02C331.06 586.03 323.28 578.72 314.45 569.77C305.62 560.82 295.72 550.35 292.45 546.49C289.18 542.63 284.66 536.56 282.42 532.99C280.17 529.42 274.57 520.42 269.96 513C265.35 505.57 260.32 497.02 258.77 494C257.22 490.98 255.51 485.8 254.98 482.5C254.45 479.2 254.12 474.16 254.26 471.29C254.47 466.65 255.17 465.18 260.63 457.79C264.01 453.23 269.63 446.39 273.13 442.59C276.64 438.79 284.45 431.43 290.5 426.24C296.55 421.04 308.48 412.16 317 406.49C325.52 400.83 337.23 393.57 343 390.36C348.77 387.15 353.61 384.18 353.75 383.76C353.89 383.34 355.46 383 357.25 383.01C359.04 383.01 361.63 382.27 363 381.35C364.86 380.12 367.04 379.8 371.5 380.11C376.6 380.46 378.88 381.35 386.7 386.01C391.76 389.03 396.04 392 396.2 392.61C396.37 393.22 400.55 397.21 405.5 401.48C410.45 405.75 418.24 413.13 422.81 417.87C427.38 422.62 431.61 427.4 432.2 428.5C432.8 429.6 434.52 432.07 436.03 434C437.54 435.93 440.19 439.98 441.91 443C443.64 446.02 448.81 455.93 453.41 465C458 474.07 465.24 488.93 469.5 498C473.75 507.07 478.32 517.65 479.64 521.5C480.96 525.35 482.53 532.55 483.14 537.5C483.81 542.96 483.98 552.2 483.58 561C483.22 568.98 482.01 580 480.9 585.5C479.78 591 477.77 598.76 476.44 602.75C475.1 606.74 471.97 614.61 469.48 620.25C466.99 625.89 464.52 631.29 463.98 632.25C463.44 633.21 463 634.45 463 635C463 635.55 461.31 638.06 459.25 640.59C457.19 643.11 452.46 648.73 448.75 653.09C445.04 657.44 441.55 660.77 441 660.5C440.45 660.23 438.99 660.63 437.75 661.41C436.51 662.18 431.9 663.94 427.5 665.31C423.1 666.68 413.65 669.05 406.5 670.57C395.56 672.9 390.48 673.4 374.5 673.72L355.5 674.09C346.2 667.8 342.79 665.87 341.92 665.74C341.04 665.61 339.69 664.99 338.92 664.37C338.14 663.75 335.59 662.29 333.25 661.12C330.91 659.95 327.88 659 326.5 659C325.13 659 323.77 658.55 323.5 658C323.23 657.45 322.1 657 321 657C319.9 657 319 656.55 319 656C319 655.45 317.88 654.77 316.5 654.5C315.13 654.23 308.49 651.7 301.75 648.89C295.01 646.08 284.1 641.65 277.5 639.03C270.9 636.41 263.59 633.31 261.25 632.14C258.12 630.56 256.89 630.33 256.58 631.25C256.35 631.94 256.12 631.71 256.08 630.75C256.04 629.79 254.43 628.1 252.5 627C250.57 625.9 248.55 625.23 248 625.5C247.45 625.77 246.97 625.44 246.93 624.75C246.89 624.06 240.77 618.55 233.31 612.5C225.86 606.45 215.66 597.02 210.63 591.55C205.61 586.07 197.9 577.84 193.5 573.26C189.1 568.67 180.63 560.78 174.68 555.71C168.74 550.64 160.64 543.92 156.68 540.77C152.73 537.62 147.82 534.25 145.76 533.27C143.7 532.3 141.67 531.82 141.26 532.21C140.84 532.61 145 537.8 150.5 543.77C156 549.73 163.2 558.05 166.5 562.26C169.8 566.46 173.06 569.93 173.75 569.95C174.44 569.98 175 570.45 175 571C175 571.55 179.44 578.64 184.87 586.75C190.96 595.86 198.35 605.32 204.21 611.5C209.42 617 217.02 624.06 221.09 627.2C225.17 630.33 230.35 633.93 232.61 635.2C234.88 636.46 238.93 639.05 241.61 640.95C244.3 642.85 250.1 646.18 254.5 648.36C258.9 650.54 262.73 652.59 263 652.91C263.27 653.24 267.32 655.3 272 657.5C276.68 659.7 280.73 661.79 281 662.14C281.27 662.49 283.07 663.25 285 663.84C286.93 664.42 294.57 666.96 302 669.47C309.43 671.99 316.18 674.32 317 674.66C317.82 674.99 319.4 675.4 320.5 675.57C321.6 675.75 324.98 676.39 328 677.01C331.02 677.63 337.55 678.99 342.5 680.04C347.45 681.08 356.9 682.42 363.5 683.02C370.15 683.63 381.52 683.84 389 683.49C396.43 683.15 407.68 681.99 414 680.91C420.32 679.83 428.43 677.99 432 676.83C435.57 675.67 440.19 673.89 442.25 672.86C444.31 671.84 445.89 670.6 445.75 670.11C445.61 669.62 447.3 667.78 449.5 666.01C451.7 664.25 455.19 661.95 457.25 660.9C459.31 659.86 462.09 657.54 463.43 655.75C464.77 653.96 469.83 648.43 474.68 643.47C479.53 638.5 486.54 630.4 490.27 625.47C493.99 620.53 497.02 615.71 497.02 614.75C497.01 613.79 497.68 613 498.5 613C499.32 613 500 612.21 500 611.25C499.99 610.29 500.89 608.94 502 608.25C503.1 607.56 504.3 605.54 504.67 603.75C505.04 601.96 506.17 599.71 507.17 598.75C508.18 597.79 508.77 596.33 508.5 595.5C508.23 594.67 508.45 594 509 594C509.55 594 509.99 592.76 509.98 591.25C509.97 589.74 510.54 587.92 511.23 587.2C511.93 586.49 512.53 585.59 512.57 585.2C512.61 584.82 513.23 582.48 513.94 580C514.87 576.79 515.07 571.91 514.64 563C514.31 556.13 513.64 550.27 513.15 550C512.67 549.73 511.95 546.8 511.55 543.5C511.16 540.2 508.11 527.6 504.78 515.5C501.45 503.4 498.31 491.48 497.8 489C497.29 486.52 496.23 483.15 495.45 481.5C494.67 479.85 491.5 472.2 488.41 464.5C485.33 456.8 480.96 447.13 478.72 443C476.47 438.88 472.98 433.02 470.96 430C468.94 426.98 466.6 423.15 465.75 421.5C464.91 419.85 461.31 415.35 457.75 411.5C454.19 407.65 448.49 402.48 445.09 400C441.68 397.52 438.35 395.46 437.7 395.41C437.04 395.37 429.98 390.36 422 384.29C414.02 378.21 404.57 371.63 401 369.65C397.43 367.68 390.9 365.15 386.5 364.02C382.1 362.9 377.96 361.98 377.3 361.99C376.64 361.99 375.78 362.39 375.4 362.87ZM572.67 490.37C571.25 491.77 570.07 494.05 570.05 495.45C570.02 496.85 570.68 498.34 571.52 498.75C572.51 499.24 573.9 498.64 575.54 497C576.92 495.63 578.14 493.54 578.26 492.37C578.37 491.2 577.74 489.7 576.86 489.03C575.54 488.04 574.8 488.28 572.67 490.37Z" />
	</g>
</svg>